Coordinates
version=1
nRows=27
nColumns=21
inDegrees=yes

Units are S.I. units (second, meters, Newtons, ...)
If the header above contains a line with 'inDegrees', this indicates whether rotational values are in degrees (yes) or radians (no).

endheader
time	sternoclavicular_r2	sternoclavicular_r3	unrotscap_r3	unrotscap_r2	acromioclavicular_r2	acromioclavicular_r3	acromioclavicular_r1	unrothum_r1	unrothum_r3	unrothum_r2	elv_angle	shoulder_elev	shoulder1_r2	shoulder_rot	elbow_flexion	pro_sup	deviation	flexion	wrist_hand_r1	wrist_hand_r3
      5.05050505	     -0.00089093	      0.00037736	     -0.00037736	      0.00089093	     -0.00018040	      0.00145789	      0.00065531	     -0.00065531	     -0.00145789	      0.00018040	     20.17523546	      0.00368153	    -20.17523546	     20.05141708	    121.13252930	      0.00000000	      0.00000000	     -0.00000000	     -0.00000000	      0.00000000
      5.15151515	     -0.00085075	      0.00036034	     -0.00036034	      0.00085075	     -0.00017226	      0.00139214	      0.00062576	     -0.00062576	     -0.00139214	      0.00017226	     20.14121680	      0.00351547	    -20.14121680	     20.05149161	    120.39838710	      0.00000000	      0.00000000	     -0.00000000	     -0.00000000	      0.00000000
      5.25252525	     -0.00081305	      0.00034437	     -0.00034437	      0.00081305	     -0.00016463	      0.00133046	      0.00059803	     -0.00059803	     -0.00133046	      0.00016463	     20.11210842	      0.00335972	    -20.11210842	     20.05156151	    119.67382721	      0.00000000	      0.00000000	     -0.00000000	     -0.00000000	      0.00000000
      5.35353535	     -0.00077795	      0.00032950	     -0.00032950	      0.00077795	     -0.00015752	      0.00127301	      0.00057221	     -0.00057221	     -0.00127301	      0.00015752	     20.08718974	      0.00321465	    -20.08718974	     20.05162702	    118.95987265	      0.00000000	      0.00000000	     -0.00000000	     -0.00000000	      0.00000000
      5.45454545	     -0.00074525	      0.00031565	     -0.00031565	      0.00074525	     -0.00015090	      0.00121950	      0.00054816	     -0.00054816	     -0.00121950	      0.00015090	     20.06577879	      0.00307953	    -20.06577879	     20.05168842	    118.25764252	      0.00000000	      0.00000000	     -0.00000000	     -0.00000000	      0.00000000
      5.55555556	     -0.00071474	      0.00030273	     -0.00030273	      0.00071474	     -0.00014472	      0.00116958	      0.00052572	     -0.00052572	     -0.00116958	      0.00014472	     20.04783985	      0.00295348	    -20.04783985	     20.05174596	    117.56827332	      0.00000000	      0.00000000	     -0.00000000	     -0.00000000	      0.00000000
      5.65656566	     -0.00068633	      0.00029069	     -0.00029069	      0.00068633	     -0.00013897	      0.00112308	      0.00050482	     -0.00050482	     -0.00112308	      0.00013897	     20.03286292	      0.00283605	    -20.03286292	     20.05179988	    116.89266881	      0.00000000	      0.00000000	     -0.00000000	     -0.00000000	      0.00000000
      5.75757576	     -0.00065984	      0.00027948	     -0.00027948	      0.00065984	     -0.00013360	      0.00107974	      0.00048534	     -0.00048534	     -0.00107974	      0.00013360	     20.02035032	      0.00272660	    -20.02035032	     20.05185040	    116.23172030	      0.00000000	      0.00000000	     -0.00000000	     -0.00000000	      0.00000000
      5.85858586	     -0.00063514	      0.00026902	     -0.00026902	      0.00063514	     -0.00012860	      0.00103932	      0.00046717	     -0.00046717	     -0.00103932	      0.00012860	     20.01002091	      0.00262454	    -20.01002091	     20.05189773	    115.58624241	      0.00000000	      0.00000000	     -0.00000000	     -0.00000000	      0.00000000
      5.95959596	     -0.00054353	      0.00023021	     -0.00023021	      0.00054353	     -0.00011005	      0.00088941	      0.00039978	     -0.00039978	     -0.00088941	      0.00011005	     20.00176618	      0.00224598	    -20.00176618	     20.05194462	    114.95625607	      0.00000000	      0.00000000	     -0.00000000	     -0.00000000	      0.00000000
      6.06060606	     -0.00054557	      0.00023108	     -0.00023108	      0.00054557	     -0.00011047	      0.00089275	      0.00040128	     -0.00040128	     -0.00089275	      0.00011047	     19.99536268	      0.00225440	    -19.99536268	     20.05198558	    114.33835893	      0.00000000	      0.00000000	     -0.00000000	     -0.00000000	      0.00000000
      6.16161616	     -0.00057069	      0.00024172	     -0.00024172	      0.00057069	     -0.00011555	      0.00093386	      0.00041976	     -0.00041976	     -0.00093386	      0.00011555	     19.99046052	      0.00235822	    -19.99046052	     20.05202259	    113.74948236	      0.00000000	      0.00000000	     -0.00000000	     -0.00000000	      0.00000000
      6.26262626	     -0.00055205	      0.00023382	     -0.00023382	      0.00055205	     -0.00011178	      0.00090336	      0.00040606	     -0.00040606	     -0.00090336	      0.00011178	     19.98688177	      0.00228121	    -19.98688177	     20.05205906	    113.17276071	      0.00000000	      0.00000000	     -0.00000000	     -0.00000000	      0.00000000
      6.36363636	     -0.00053469	      0.00022647	     -0.00022647	      0.00053469	     -0.00010826	      0.00087495	      0.00039328	     -0.00039328	     -0.00087495	      0.00010826	     19.98450617	      0.00220946	    -19.98450617	     20.05209320	    112.61447114	      0.00000000	      0.00000000	     -0.00000000	     -0.00000000	      0.00000000
      6.46464646	     -0.00051852	      0.00021962	     -0.00021962	      0.00051852	     -0.00010499	      0.00084849	      0.00038139	     -0.00038139	     -0.00084849	      0.00010499	     19.98321945	      0.00214264	    -19.98321945	     20.05212518	    112.07501242	      0.00000000	      0.00000000	     -0.00000000	     -0.00000000	      0.00000000
      6.56565657	     -0.00050346	      0.00021324	     -0.00021324	      0.00050346	     -0.00010194	      0.00082385	      0.00037031	     -0.00037031	     -0.00082385	      0.00010194	     19.98292770	      0.00208041	    -19.98292770	     20.05215510	    111.55470857	      0.00000000	      0.00000000	     -0.00000000	     -0.00000000	      0.00000000
      6.66666667	     -0.00048945	      0.00020731	     -0.00020731	      0.00048945	     -0.00009910	      0.00080091	      0.00036001	     -0.00036001	     -0.00080091	      0.00009910	     19.98352936	      0.00202250	    -19.98352936	     20.05218310	    111.05382191	      0.00000000	      0.00000000	     -0.00000000	     -0.00000000	      0.00000000
      6.76767677	     -0.00047639	      0.00020178	     -0.00020178	      0.00047639	     -0.00009646	      0.00077955	      0.00035040	     -0.00035040	     -0.00077955	      0.00009646	     19.98422883	      0.00196855	    -19.98422883	     20.05220930	    110.57234720	      0.00000000	      0.00000000	     -0.00000000	     -0.00000000	      0.00000000
      6.86868687	     -0.00046426	      0.00019664	     -0.00019664	      0.00046426	     -0.00009400	      0.00075970	      0.00034148	     -0.00034148	     -0.00075970	      0.00009400	     19.98531163	      0.00191844	    -19.98531163	     20.05223376	    110.11082456	      0.00000000	      0.00000000	     -0.00000000	     -0.00000000	      0.00000000
      6.96969697	     -0.00045299	      0.00019187	     -0.00019187	      0.00045299	     -0.00009172	      0.00074126	      0.00033319	     -0.00033319	     -0.00074126	      0.00009172	     19.98676778	      0.00187185	    -19.98676778	     20.05225660	    109.66915925	      0.00000000	      0.00000000	     -0.00000000	     -0.00000000	      0.00000000
      7.07070707	     -0.00044252	      0.00018743	     -0.00018743	      0.00044252	     -0.00008960	      0.00072412	      0.00032549	     -0.00032549	     -0.00072412	      0.00008960	     19.98859501	      0.00182859	    -19.98859501	     20.05227792	    109.24739737	      0.00000000	      0.00000000	     -0.00000000	     -0.00000000	      0.00000000
      7.17171717	     -0.00043280	      0.00018331	     -0.00018331	      0.00043280	     -0.00008763	      0.00070822	      0.00031834	     -0.00031834	     -0.00070822	      0.00008763	     19.99079802	      0.00178843	    -19.99079802	     20.05229779	    108.84554025	      0.00000000	      0.00000000	     -0.00000000	     -0.00000000	      0.00000000
      7.27272727	     -0.00042379	      0.00017950	     -0.00017950	      0.00042379	     -0.00008581	      0.00069347	      0.00031171	     -0.00031171	     -0.00069347	      0.00008581	     19.99338712	      0.00175119	    -19.99338712	     20.05231630	    108.46354649	      0.00000000	      0.00000000	     -0.00000000	     -0.00000000	      0.00000000
      7.37373737	     -0.00041544	      0.00017596	     -0.00017596	      0.00041544	     -0.00008412	      0.00067982	      0.00030557	     -0.00030557	     -0.00067982	      0.00008412	     19.99637616	      0.00171670	    -19.99637616	     20.05233352	    108.10133419	      0.00000000	      0.00000000	     -0.00000000	     -0.00000000	      0.00000000
      7.47474747	     -0.00040772	      0.00017269	     -0.00017269	      0.00040772	     -0.00008256	      0.00066718	      0.00029989	     -0.00029989	     -0.00066718	      0.00008256	     19.99977990	      0.00168479	    -19.99977990	     20.05234951	    107.75878290	      0.00000000	      0.00000000	     -0.00000000	     -0.00000000	      0.00000000
      7.57575758	     -0.00040059	      0.00016967	     -0.00016967	      0.00040059	     -0.00008111	      0.00065551	      0.00029465	     -0.00029465	     -0.00065551	      0.00008111	     20.00361108	      0.00165532	    -20.00361108	     20.05236434	    107.43573526	      0.00000000	      0.00000000	     -0.00000000	     -0.00000000	      0.00000000
      7.67676768	     -0.00039401	      0.00016689	     -0.00016689	      0.00039401	     -0.00007978	      0.00064475	      0.00028981	     -0.00028981	     -0.00064475	      0.00007978	     20.00787741	      0.00162815	    -20.00787741	     20.05237807	    107.13199831	      0.00000000	      0.00000000	     -0.00000000	     -0.00000000	      0.00000000
